<?xml version="1.0" standalone="no"?><!DOCTYPE svg PUBLIC "-//W3C//DTD SVG 1.1//EN" "http://www.w3.org/Graphics/SVG/1.1/DTD/svg11.dtd"><svg class="icon" width="512px" height="512.00px" viewBox="0 0 1024 1024" version="1.1" xmlns="http://www.w3.org/2000/svg"><path d="M512 512m-512 0a512 512 0 1 0 1024 0 512 512 0 1 0-1024 0Z" fill="#A7F9DE" /><path d="M209.454545 372.363636m23.272728 0l558.545454 0q23.272727 0 23.272728 23.272728l0 232.727272q0 23.272727-23.272728 23.272728l-558.545454 0q-23.272727 0-23.272728-23.272728l0-232.727272q0-23.272727 23.272728-23.272728Z" fill="#1CD38D" /><path d="M907.636364 442.181818h-23.272728v-69.818182a69.818182 69.818182 0 0 0-69.818181-69.818181H209.454545a69.818182 69.818182 0 0 0-69.818181 69.818181v279.272728a69.818182 69.818182 0 0 0 69.818181 69.818181h605.09091a69.818182 69.818182 0 0 0 69.818181-69.818181v-69.818182h23.272728a23.272727 23.272727 0 0 0 23.272727-23.272727v-93.09091a23.272727 23.272727 0 0 0-23.272727-23.272727z m-46.545455 209.454546a46.545455 46.545455 0 0 1-46.545454 46.545454H209.454545a46.545455 46.545455 0 0 1-46.545454-46.545454V372.363636a46.545455 46.545455 0 0 1 46.545454-46.545454h605.09091a46.545455 46.545455 0 0 1 46.545454 46.545454z" fill="#1CD38D" /></svg>