<?xml version="1.0" standalone="no"?><!DOCTYPE svg PUBLIC "-//W3C//DTD SVG 1.1//EN" "http://www.w3.org/Graphics/SVG/1.1/DTD/svg11.dtd"><svg class="icon" width="512px" height="512.00px" viewBox="0 0 1024 1024" version="1.1" xmlns="http://www.w3.org/2000/svg"><path d="M512 512m-512 0a512 512 0 1 0 1024 0 512 512 0 1 0-1024 0Z" fill="#B3DFFF" /><path d="M592.058182 512L768 390.749091a23.272727 23.272727 0 0 0 0-37.003636L494.545455 165.934545a23.272727 23.272727 0 0 0-12.567273-3.025454 23.272727 23.272727 0 0 0-23.272727 23.272727v237.847273l-121.483637-105.890909a34.909091 34.909091 0 1 0-46.545454 52.596363l162.909091 141.265455-162.909091 141.265455a34.909091 34.909091 0 1 0 46.545454 52.596363l121.483637-105.890909v239.709091a23.272727 23.272727 0 0 0 23.272727 23.272727 23.272727 23.272727 0 0 0 12.567273-3.956363L768 670.254545a23.272727 23.272727 0 0 0 0-37.003636z m80.290909-139.636364l-142.196364 97.28v-195.258181z m-143.127273 377.250909v-194.56L672.349091 651.636364z" fill="#439DFF" /></svg>