<?xml version="1.0" standalone="no"?><!DOCTYPE svg PUBLIC "-//W3C//DTD SVG 1.1//EN" "http://www.w3.org/Graphics/SVG/1.1/DTD/svg11.dtd"><svg class="icon" width="512px" height="512.00px" viewBox="0 0 1024 1024" version="1.1" xmlns="http://www.w3.org/2000/svg"><path d="M512 512m-512 0a512 512 0 1 0 1024 0 512 512 0 1 0-1024 0Z" fill="#DBDBDB" /><path d="M512 523.636364m-162.909091 0a162.909091 162.909091 0 1 0 325.818182 0 162.909091 162.909091 0 1 0-325.818182 0Z" fill="#8E8E8E" /><path d="M837.818182 267.636364h-162.909091l-33.745455-67.258182a46.545455 46.545455 0 0 0-41.658181-25.832727h-175.01091a46.545455 46.545455 0 0 0-41.658181 25.832727L349.090909 267.636364H186.181818a46.545455 46.545455 0 0 0-46.545454 46.545454v442.181818a46.545455 46.545455 0 0 0 46.545454 46.545455h651.636364a46.545455 46.545455 0 0 0 46.545454-46.545455v-442.181818a46.545455 46.545455 0 0 0-46.545454-46.545454z m-325.818182 465.454545a209.454545 209.454545 0 1 1 209.454545-209.454545 209.454545 209.454545 0 0 1-209.454545 209.454545z m209.454545-372.363636a23.272727 23.272727 0 1 1 23.272728-23.272728 23.272727 23.272727 0 0 1-23.272728 23.272728z" fill="#8E8E8E" /><path d="M209.454545 209.454545m11.636364 0l69.818182 0q11.636364 0 11.636364 11.636364l0 11.636364q0 11.636364-11.636364 11.636363l-69.818182 0q-11.636364 0-11.636364-11.636363l0-11.636364q0-11.636364 11.636364-11.636364Z" fill="#8E8E8E" /></svg>