<?xml version="1.0" standalone="no"?><!DOCTYPE svg PUBLIC "-//W3C//DTD SVG 1.1//EN" "http://www.w3.org/Graphics/SVG/1.1/DTD/svg11.dtd"><svg class="icon" width="512px" height="512.00px" viewBox="0 0 1024 1024" version="1.1" xmlns="http://www.w3.org/2000/svg"><path d="M512 512m-512 0a512 512 0 1 0 1024 0 512 512 0 1 0-1024 0Z" fill="#B3DFFF" /><path d="M328.610909 372.363636a23.272727 23.272727 0 0 0-43.752727 0l-116.363637 317.44a23.272727 23.272727 0 1 0 43.752728 16.058182l40.96-111.709091h107.054545l40.96 111.709091a23.272727 23.272727 0 1 0 43.752727-16.058182z m-58.414545 175.243637l36.538181-99.607273 36.538182 99.607273zM855.272727 690.269091l-170.589091-465.454546a23.272727 23.272727 0 0 0-43.752727 0l-170.589091 465.454546a23.272727 23.272727 0 1 0 43.752727 16.058182L576.698182 535.272727h172.218182l62.603636 170.821818a23.272727 23.272727 0 1 0 43.752727-16.058181zM593.92 488.727273l69.818182-188.509091 69.818182 188.509091z" fill="#439DFF" /></svg>