<?xml version="1.0" standalone="no"?><!DOCTYPE svg PUBLIC "-//W3C//DTD SVG 1.1//EN" "http://www.w3.org/Graphics/SVG/1.1/DTD/svg11.dtd"><svg class="icon" width="512px" height="512.00px" viewBox="0 0 1024 1024" version="1.1" xmlns="http://www.w3.org/2000/svg"><path d="M512 512m-512 0a512 512 0 1 0 1024 0 512 512 0 1 0-1024 0Z" fill="#B3DFFF" /><path d="M791.272727 290.909091H512l-58.181818-38.632727a46.545455 46.545455 0 0 0-25.832727-7.912728H232.727273a46.545455 46.545455 0 0 0-46.545455 46.545455v442.181818a46.545455 46.545455 0 0 0 46.545455 46.545455h558.545454a46.545455 46.545455 0 0 0 46.545455-46.545455v-395.636364a46.545455 46.545455 0 0 0-46.545455-46.545454z m-23.272727 93.090909H256a23.272727 23.272727 0 0 1 0-46.545455h512a23.272727 23.272727 0 0 1 0 46.545455z" fill="#439DFF" /></svg>