<?xml version="1.0" standalone="no"?><!DOCTYPE svg PUBLIC "-//W3C//DTD SVG 1.1//EN" "http://www.w3.org/Graphics/SVG/1.1/DTD/svg11.dtd"><svg class="icon" width="512px" height="512.00px" viewBox="0 0 1024 1024" version="1.1" xmlns="http://www.w3.org/2000/svg"><path d="M512 512m-512 0a512 512 0 1 0 1024 0 512 512 0 1 0-1024 0Z" fill="#B3DFFF" /><path d="M884.363636 279.272727H139.636364a23.272727 23.272727 0 0 0-23.272728 23.272728v418.90909a23.272727 23.272727 0 0 0 23.272728 23.272728h744.727272a23.272727 23.272727 0 0 0 23.272728-23.272728V302.545455a23.272727 23.272727 0 0 0-23.272728-23.272728z m0 442.181818H139.636364V302.545455h744.727272z" fill="#439DFF" /><path d="M186.181818 349.090909h69.818182v69.818182H186.181818zM302.545455 349.090909h69.818181v69.818182h-69.818181zM418.909091 349.090909h69.818182v69.818182h-69.818182zM535.272727 349.090909h69.818182v69.818182h-69.818182zM651.636364 349.090909h69.818181v69.818182h-69.818181zM768 349.090909h69.818182v69.818182h-69.818182zM186.181818 465.454545h69.818182v69.818182H186.181818zM186.181818 581.818182h69.818182v69.818182H186.181818zM302.545455 581.818182h418.90909v69.818182H302.545455zM302.545455 465.454545h69.818181v69.818182h-69.818181zM418.909091 465.454545h69.818182v69.818182h-69.818182zM535.272727 465.454545h69.818182v69.818182h-69.818182zM651.636364 465.454545h69.818181v69.818182h-69.818181zM768 465.454545h69.818182v69.818182h-69.818182zM768 581.818182h69.818182v69.818182h-69.818182z" fill="#439DFF" /></svg>