<?xml version="1.0" standalone="no"?><!DOCTYPE svg PUBLIC "-//W3C//DTD SVG 1.1//EN" "http://www.w3.org/Graphics/SVG/1.1/DTD/svg11.dtd"><svg class="icon" width="512px" height="512.00px" viewBox="0 0 1024 1024" version="1.1" xmlns="http://www.w3.org/2000/svg"><path d="M512 512m-512 0a512 512 0 1 0 1024 0 512 512 0 1 0-1024 0Z" fill="#FFC0D5" /><path d="M325.818182 271.36v418.909091a103.098182 103.098182 0 0 0-46.545455-11.170909 87.505455 87.505455 0 0 0-93.090909 80.756363 87.505455 87.505455 0 0 0 93.090909 80.756364 87.505455 87.505455 0 0 0 93.090909-80.756364V427.52l372.363637-73.774545v244.130909a103.098182 103.098182 0 0 0-46.545455-11.170909 87.505455 87.505455 0 0 0-93.090909 80.756363 87.505455 87.505455 0 0 0 93.090909 80.756364 87.505455 87.505455 0 0 0 93.090909-80.756364V188.276364a23.272727 23.272727 0 0 0-27.927272-23.272728l-418.909091 83.083637a23.272727 23.272727 0 0 0-18.618182 23.272727z" fill="#FF4A8B" /></svg>