<?xml version="1.0" standalone="no"?><!DOCTYPE svg PUBLIC "-//W3C//DTD SVG 1.1//EN" "http://www.w3.org/Graphics/SVG/1.1/DTD/svg11.dtd"><svg class="icon" width="512px" height="512.00px" viewBox="0 0 1024 1024" version="1.1" xmlns="http://www.w3.org/2000/svg"><path d="M512 512m-512 0a512 512 0 1 0 1024 0 512 512 0 1 0-1024 0Z" fill="#DBDBDB" /><path d="M512 209.454545a23.272727 23.272727 0 0 0-23.272727 23.272728v558.545454a23.272727 23.272727 0 0 0 46.545454 0V232.727273a23.272727 23.272727 0 0 0-23.272727-23.272728zM325.818182 279.272727a23.272727 23.272727 0 0 0-23.272727 23.272728v418.90909a23.272727 23.272727 0 0 0 46.545454 0V302.545455a23.272727 23.272727 0 0 0-23.272727-23.272728zM698.181818 279.272727a23.272727 23.272727 0 0 0-23.272727 23.272728v418.90909a23.272727 23.272727 0 0 0 46.545454 0V302.545455a23.272727 23.272727 0 0 0-23.272727-23.272728zM418.909091 395.636364a23.272727 23.272727 0 0 0-23.272727 23.272727v186.181818a23.272727 23.272727 0 0 0 46.545454 0v-186.181818a23.272727 23.272727 0 0 0-23.272727-23.272727zM605.090909 395.636364a23.272727 23.272727 0 0 0-23.272727 23.272727v186.181818a23.272727 23.272727 0 0 0 46.545454 0v-186.181818a23.272727 23.272727 0 0 0-23.272727-23.272727zM232.727273 442.181818a23.272727 23.272727 0 0 0-23.272728 23.272727v93.09091a23.272727 23.272727 0 0 0 46.545455 0v-93.09091a23.272727 23.272727 0 0 0-23.272727-23.272727zM791.272727 442.181818a23.272727 23.272727 0 0 0-23.272727 23.272727v93.09091a23.272727 23.272727 0 0 0 46.545455 0v-93.09091a23.272727 23.272727 0 0 0-23.272728-23.272727z" fill="#8E8E8E" /><path d="M139.636364 512m-23.272728 0a23.272727 23.272727 0 1 0 46.545455 0 23.272727 23.272727 0 1 0-46.545455 0Z" fill="#8E8E8E" /><path d="M884.363636 512m-23.272727 0a23.272727 23.272727 0 1 0 46.545455 0 23.272727 23.272727 0 1 0-46.545455 0Z" fill="#8E8E8E" /></svg>