<?xml version="1.0" standalone="no"?><!DOCTYPE svg PUBLIC "-//W3C//DTD SVG 1.1//EN" "http://www.w3.org/Graphics/SVG/1.1/DTD/svg11.dtd"><svg class="icon" width="512px" height="512.00px" viewBox="0 0 1024 1024" version="1.1" xmlns="http://www.w3.org/2000/svg"><path d="M512 512m-512 0a512 512 0 1 0 1024 0 512 512 0 1 0-1024 0Z" fill="#DBDBDB" /><path d="M418.909091 209.454545h-139.636364a69.818182 69.818182 0 0 0-69.818182 69.818182v139.636364a69.818182 69.818182 0 0 0 69.818182 69.818182h139.636364a69.818182 69.818182 0 0 0 69.818182-69.818182v-139.636364a69.818182 69.818182 0 0 0-69.818182-69.818182z m23.272727 209.454546a23.272727 23.272727 0 0 1-23.272727 23.272727h-139.636364a23.272727 23.272727 0 0 1-23.272727-23.272727v-139.636364a23.272727 23.272727 0 0 1 23.272727-23.272727h139.636364a23.272727 23.272727 0 0 1 23.272727 23.272727zM744.727273 209.454545h-139.636364a69.818182 69.818182 0 0 0-69.818182 69.818182v139.636364a69.818182 69.818182 0 0 0 69.818182 69.818182h139.636364a69.818182 69.818182 0 0 0 69.818182-69.818182v-139.636364a69.818182 69.818182 0 0 0-69.818182-69.818182z m23.272727 209.454546a23.272727 23.272727 0 0 1-23.272727 23.272727h-139.636364a23.272727 23.272727 0 0 1-23.272727-23.272727v-139.636364a23.272727 23.272727 0 0 1 23.272727-23.272727h139.636364a23.272727 23.272727 0 0 1 23.272727 23.272727zM418.909091 535.272727h-139.636364a69.818182 69.818182 0 0 0-69.818182 69.818182v139.636364a69.818182 69.818182 0 0 0 69.818182 69.818182h139.636364a69.818182 69.818182 0 0 0 69.818182-69.818182v-139.636364a69.818182 69.818182 0 0 0-69.818182-69.818182z m23.272727 209.454546a23.272727 23.272727 0 0 1-23.272727 23.272727h-139.636364a23.272727 23.272727 0 0 1-23.272727-23.272727v-139.636364a23.272727 23.272727 0 0 1 23.272727-23.272727h139.636364a23.272727 23.272727 0 0 1 23.272727 23.272727zM744.727273 535.272727h-139.636364a69.818182 69.818182 0 0 0-69.818182 69.818182v139.636364a69.818182 69.818182 0 0 0 69.818182 69.818182h139.636364a69.818182 69.818182 0 0 0 69.818182-69.818182v-139.636364a69.818182 69.818182 0 0 0-69.818182-69.818182z m23.272727 209.454546a23.272727 23.272727 0 0 1-23.272727 23.272727h-139.636364a23.272727 23.272727 0 0 1-23.272727-23.272727v-139.636364a23.272727 23.272727 0 0 1 23.272727-23.272727h139.636364a23.272727 23.272727 0 0 1 23.272727 23.272727z" fill="#8E8E8E" /></svg>