<?xml version="1.0" standalone="no"?><!DOCTYPE svg PUBLIC "-//W3C//DTD SVG 1.1//EN" "http://www.w3.org/Graphics/SVG/1.1/DTD/svg11.dtd"><svg class="icon" width="512px" height="512.00px" viewBox="0 0 1024 1024" version="1.1" xmlns="http://www.w3.org/2000/svg"><path d="M512 512m-512 0a512 512 0 1 0 1024 0 512 512 0 1 0-1024 0Z" fill="#B3DFFF" /><path d="M209.454545 495.010909a408.901818 408.901818 0 0 1 602.996364 0L884.363636 418.909091a505.250909 505.250909 0 0 0-744.727272 0z" fill="#439DFF" /><path d="M512 468.712727a316.276364 316.276364 0 0 0-230.4 101.469091l69.818182 75.170909a216.436364 216.436364 0 0 1 319.069091 0l69.818182-75.170909A316.276364 316.276364 0 0 0 512 468.712727zM600.669091 721.454545a120.552727 120.552727 0 0 0-177.338182 0L512 814.545455z" fill="#439DFF" /></svg>