<?xml version="1.0" standalone="no"?><!DOCTYPE svg PUBLIC "-//W3C//DTD SVG 1.1//EN" "http://www.w3.org/Graphics/SVG/1.1/DTD/svg11.dtd"><svg class="icon" width="512px" height="512.00px" viewBox="0 0 1024 1024" version="1.1" xmlns="http://www.w3.org/2000/svg"><path fill="#ffffff" d="M533.333333 85.333333a42.666667 42.666667 0 0 1 42.666667 42.666667v768a42.666667 42.666667 0 0 1-85.333333 0V128a42.666667 42.666667 0 0 1 42.666666-42.666667z m197.717334 153.6a42.666667 42.666667 0 0 1 42.666666 42.666667v460.8a42.666667 42.666667 0 1 1-85.333333 0V281.6a42.666667 42.666667 0 0 1 42.666667-42.666667z m-395.434667 0a42.666667 42.666667 0 0 1 42.666667 42.666667v460.8a42.666667 42.666667 0 0 1-85.333334 0V281.6a42.666667 42.666667 0 0 1 42.666667-42.666667zM137.898667 354.133333a42.666667 42.666667 0 0 1 42.666666 42.666667v230.4a42.666667 42.666667 0 0 1-85.333333 0V396.8a42.666667 42.666667 0 0 1 42.666667-42.666667z m790.869333 0a42.666667 42.666667 0 0 1 42.666667 42.666667v230.4a42.666667 42.666667 0 0 1-85.333334 0V396.8a42.666667 42.666667 0 0 1 42.666667-42.666667z"  opacity=".8" /></svg>