<?xml version="1.0" standalone="no"?><!DOCTYPE svg PUBLIC "-//W3C//DTD SVG 1.1//EN" "http://www.w3.org/Graphics/SVG/1.1/DTD/svg11.dtd"><svg class="icon" width="512px" height="512.00px" viewBox="0 0 1024 1024" version="1.1" xmlns="http://www.w3.org/2000/svg"><path fill="#ffffff" d="M827.733333 426.666667c-29.866667-145.066667-157.866667-256-315.733333-256-64 0-123.733333 17.066667-170.666667 51.2l64 64C435.2 264.533333 473.6 256 512 256c128 0 234.666667 106.666667 234.666667 234.666667L746.666667 512 810.666667 512c72.533333 0 128 55.466667 128 128 0 46.933333-25.6 89.6-68.266667 110.933333l64 64c55.466667-38.4 89.6-102.4 89.6-174.933333C1024 529.066667 934.4 435.2 827.733333 426.666667zM128 226.133333 247.466667 341.333333C110.933333 349.866667 0 460.8 0 597.333333c0 140.8 115.2 256 256 256l499.2 0 85.333333 85.333333 55.466667-55.466667L183.466667 170.666667 128 226.133333zM328.533333 426.666667l341.333333 341.333333L256 768c-93.866667 0-170.666667-76.8-170.666667-170.666667 0-93.866667 76.8-170.666667 170.666667-170.666667L328.533333 426.666667z" /></svg>