<?xml version="1.0" standalone="no"?><!DOCTYPE svg PUBLIC "-//W3C//DTD SVG 1.1//EN" "http://www.w3.org/Graphics/SVG/1.1/DTD/svg11.dtd"><svg class="icon" width="512px" height="512.00px" viewBox="0 0 1024 1024" version="1.1" xmlns="http://www.w3.org/2000/svg"><path fill="#ffffff" d="M935.125333 575.317333a186.922667 186.922667 0 0 0-221.44-181.76 267.989333 267.989333 0 0 0-501.333333 93.44 138.112 138.112 0 0 0-113.493333 85.333334 146.474667 146.474667 0 0 0 34.986666 159.573333c47.786667 43.946667 108.373333 37.973333 168.106667 37.973333h433.066667a192.597333 192.597333 0 0 0 200.106666-184.32z m-198.4 151.893334c-50.773333 0.426667-101.546667 0-151.893333 0-117.333333 0-234.24 2.56-351.146667 0a101.674667 101.674667 0 0 1-99.413333-73.813334 99.541333 99.541333 0 0 1 97.28-125.44 21.973333 21.973333 0 0 0 21.333333-21.333333 226.133333 226.133333 0 0 1 431.36-77.226667 21.333333 21.333333 0 0 0 23.893334 9.813334 143.616 143.616 0 0 1 184.746666 141.653333 148.864 148.864 0 0 1-156.16 146.346667z"  /></svg>