<?xml version="1.0" standalone="no"?><!DOCTYPE svg PUBLIC "-//W3C//DTD SVG 1.1//EN" "http://www.w3.org/Graphics/SVG/1.1/DTD/svg11.dtd"><svg class="icon" width="512px" height="512.00px" viewBox="0 0 1024 1024" version="1.1" xmlns="http://www.w3.org/2000/svg"><path fill="#ffffff" d="M684.831478 1023.993417A298.713082 298.713082 0 1 1 987.4211 725.353478 300.614781 300.614781 0 0 1 684.831478 1023.993417z m183.367702-419.324705l-61.073806-60.342383-122.293896 120.684766-122.220754-120.684766-61.146948 60.342383 122.293896 120.684766-122.293896 120.684766 61.146948 60.269241 122.220754-120.684766 122.293896 120.684766 61.073806-60.269241-122.220754-120.684766z m-212.112619-260.459668A866.809189 866.809189 0 0 0 36.571429 85.358506V0.001463a953.04394 953.04394 0 0 1 743.271874 354.228074 391.164927 391.164927 0 0 0-95.084967-12.873042c-9.801066 0-19.163278 2.413695-28.744917 2.852549zM400.893137 464.528099a604.447822 604.447822 0 0 0-364.248566-123.171604V255.999451a693.754549 693.754549 0 0 1 432.124605 150.161106 388.751231 388.751231 0 0 0-67.949181 58.367542z m-104.008325 251.609451A345.304715 345.304715 0 0 0 36.571429 597.354484V511.99744a431.539466 431.539466 0 0 1 277.940673 102.399195 375.000482 375.000482 0 0 0-17.700432 101.740915z m-173.786063 51.857879A85.357044 85.357044 0 1 1 36.571429 853.352472 85.86904 85.86904 0 0 1 123.025606 767.995429z" /></svg>