<?xml version="1.0" standalone="no"?><!DOCTYPE svg PUBLIC "-//W3C//DTD SVG 1.1//EN" "http://www.w3.org/Graphics/SVG/1.1/DTD/svg11.dtd"><svg class="icon" width="512px" height="512.00px" viewBox="0 0 1024 1024" version="1.1" xmlns="http://www.w3.org/2000/svg"><path fill="#ffffff" d="M930.892621 1023.997637A930.892621 930.892621 0 0 0 0 93.105016V0a1023.997637 1023.997637 0 0 1 1023.997637 1023.997637h-93.105016z m-186.210032 0H651.656342A651.656342 651.656342 0 0 0 0 372.341295V279.236279A744.761358 744.761358 0 0 1 744.682589 1023.997637z m-279.236278 0H372.341295A372.341295 372.341295 0 0 0 0 651.656342V558.551326A465.446311 465.446311 0 0 1 465.446311 1023.997637z m-372.341295-186.210032A93.105016 93.105016 0 1 1 0 930.892621a93.105016 93.105016 0 0 1 93.105016-93.105016z" /></svg>